<svg width="14" height="14" viewBox="0 0 14 14" fill="none" xmlns="http://www.w3.org/2000/svg" class="fill-bg-dark w-4 h-4  undefined"><g clip-path="url(#clip0_9056_317920)"><path fill-rule="evenodd" clip-rule="evenodd" d="M4.8125 5.25008C4.8125 4.04196 5.79187 3.06258 7 3.06258C8.20812 3.06258 9.1875 4.04196 9.1875 5.25008C9.1875 6.4582 8.20812 7.43758 7 7.43758C5.79187 7.43758 4.8125 6.4582 4.8125 5.25008ZM7 3.93758C6.27512 3.93758 5.6875 4.52521 5.6875 5.25008C5.6875 5.97495 6.27512 6.56258 7 6.56258C7.72487 6.56258 8.3125 5.97495 8.3125 5.25008C8.3125 4.52521 7.72487 3.93758 7 3.93758Z" fill="current"></path><path fill-rule="evenodd" clip-rule="evenodd" d="M0.729164 7.00008C0.729164 3.5368 3.53671 0.729248 7 0.729248C10.4633 0.729248 13.2708 3.5368 13.2708 7.00008C13.2708 10.4634 10.4633 13.2709 7 13.2709C3.53671 13.2709 0.729164 10.4634 0.729164 7.00008ZM7 1.60425C4.01996 1.60425 1.60416 4.02004 1.60416 7.00008C1.60416 8.485 2.20399 9.82983 3.17456 10.8055C3.27979 10.2378 3.48655 9.7026 3.90155 9.27222C4.5223 8.62846 5.51493 8.31258 6.99997 8.31258C8.48501 8.31258 9.47763 8.62846 10.0984 9.27222C10.5134 9.70261 10.7202 10.2378 10.8254 10.8055C11.796 9.82987 12.3958 8.48503 12.3958 7.00008C12.3958 4.02004 9.98003 1.60425 7 1.60425ZM10.0296 11.4657C9.97021 10.7588 9.81671 10.2407 9.46852 9.87958C9.08966 9.48669 8.38769 9.18758 6.99997 9.18758C5.61224 9.18758 4.91027 9.48669 4.53142 9.87958C4.18324 10.2407 4.02973 10.7587 3.9703 11.4657C4.83399 12.0528 5.87692 12.3959 7 12.3959C8.12305 12.3959 9.16596 12.0528 10.0296 11.4657Z" fill="current"></path></g><defs><clipPath id="clip0_9056_317920"><rect width="14" height="14" fill="white"></rect></clipPath></defs></svg>