<svg width="14" height="15" viewBox="0 0 14 15" fill="none" xmlns="http://www.w3.org/2000/svg" class="fill-bg-dark w-4 h-4  undefined"><path d="M5.65964 8.82028C5.74448 8.59404 5.62985 8.34186 5.40361 8.25702C5.17737 8.17218 4.92519 8.28681 4.84035 8.51305L3.96535 10.8464C3.88051 11.0726 3.99514 11.3248 4.22138 11.4096C4.44762 11.4945 4.6998 11.3799 4.78464 11.1536L5.65964 8.82028Z" fill="current"></path><path d="M3.80936 8.97603C3.98021 8.80517 3.98021 8.52816 3.80936 8.35731C3.6385 8.18645 3.36149 8.18645 3.19064 8.35731L2.60731 8.94064C2.43645 9.1115 2.43645 9.3885 2.60731 9.55936L3.19064 10.1427C3.36149 10.3135 3.6385 10.3135 3.80936 10.1427C3.98021 9.97184 3.98021 9.69483 3.80936 9.52397L3.53538 9.25L3.80936 8.97603Z" fill="current"></path><path d="M6.43436 9.52397C6.2635 9.35312 5.98649 9.35312 5.81564 9.52397C5.64478 9.69483 5.64478 9.97184 5.81564 10.1427L6.08961 10.4167L5.81564 10.6906C5.64478 10.8615 5.64478 11.1385 5.81564 11.3094C5.98649 11.4802 6.2635 11.4802 6.43436 11.3094L7.01769 10.726C7.18854 10.5552 7.18854 10.2782 7.01769 10.1073L6.43436 9.52397Z" fill="current"></path><path fill-rule="evenodd" clip-rule="evenodd" d="M5.80042 1.8125H8.19957C8.38288 1.8125 8.55968 1.8125 8.73015 1.81294C8.73673 1.81265 8.74334 1.8125 8.75 1.8125C8.7575 1.8125 8.76496 1.81269 8.77237 1.81306C9.57972 1.81555 10.2438 1.82903 10.7853 1.90183C11.4692 1.99378 12.0227 2.18751 12.4593 2.62406C12.8958 3.0606 13.0896 3.61416 13.1815 4.29807C13.2708 4.96261 13.2708 5.81172 13.2708 6.88373V8.11624C13.2708 9.18826 13.2708 10.0374 13.1815 10.7019C13.0896 11.3858 12.8958 11.9394 12.4593 12.3759C12.0227 12.8125 11.4692 13.0062 10.7853 13.0982C10.2438 13.171 9.57972 13.1844 8.77238 13.1869C8.76496 13.1873 8.7575 13.1875 8.75 13.1875C8.74335 13.1875 8.73673 13.1874 8.73015 13.1871C8.56053 13.1875 8.38465 13.1875 8.20232 13.1875H5.80042C4.72841 13.1875 3.87927 13.1875 3.21473 13.0982C2.53082 13.0062 1.97727 12.8125 1.54072 12.3759C1.10418 11.9394 0.910443 11.3858 0.818493 10.7019C0.729148 10.0374 0.729155 9.18827 0.729164 8.11625V6.88376C0.729155 5.81173 0.729148 4.96261 0.818493 4.29807C0.910443 3.61416 1.10418 3.0606 1.54072 2.62406C1.97727 2.18751 2.53082 1.99378 3.21473 1.90183C3.87927 1.81248 4.7284 1.81249 5.80042 1.8125ZM8.3125 2.68751L8.3125 12.3125L5.83333 12.3125C4.72102 12.3125 3.9308 12.3116 3.33133 12.231C2.74444 12.1521 2.40631 12.0041 2.15944 11.7572C1.91257 11.5104 1.7646 11.1722 1.68569 10.5853C1.60509 9.98587 1.60416 9.19565 1.60416 8.08333V6.91667C1.60416 5.80435 1.60509 5.01413 1.68569 4.41466C1.7646 3.82778 1.91257 3.48965 2.15944 3.24278C2.40631 2.99591 2.74444 2.84793 3.33133 2.76903C3.9308 2.68843 4.72102 2.6875 5.83333 2.6875L8.3125 2.68751ZM10.6687 12.231C10.2714 12.2844 9.79045 12.3028 9.1875 12.3092L9.1875 2.69084C9.79045 2.69719 10.2714 2.71562 10.6687 2.76903C11.2556 2.84793 11.5937 2.99591 11.8406 3.24278C12.0874 3.48965 12.2354 3.82778 12.3143 4.41466C12.3949 5.01413 12.3958 5.80436 12.3958 6.91667V8.08333C12.3958 9.19565 12.3949 9.98587 12.3143 10.5853C12.2354 11.1722 12.0874 11.5104 11.8406 11.7572C11.5937 12.0041 11.2556 12.1521 10.6687 12.231Z" fill="current"></path></svg>