<svg width="14" height="14" viewBox="0 0 14 14" fill="none" xmlns="http://www.w3.org/2000/svg" class="fill-bg-dark w-4 h-4  undefined"><g clip-path="url(#clip0_9056_317856)"><path fill-rule="evenodd" clip-rule="evenodd" d="M6.98017 1.45826C6.09558 1.45702 5.22374 1.66912 4.43859 2.07659C4.32841 1.7932 4.13267 1.55118 3.87859 1.38418C4.82713 0.857365 5.89457 0.581672 6.97959 0.583259C10.5128 0.583259 13.3758 3.44742 13.3758 6.98009C13.3758 7.94259 13.1635 8.85493 12.7826 9.67392C12.5626 9.47524 12.3006 9.32887 12.0161 9.24576C12.331 8.5451 12.4964 7.78646 12.5016 7.01829C12.5068 6.25011 12.3517 5.4893 12.0463 4.78444C11.7408 4.07959 11.2918 3.44618 10.7277 2.92469C10.1636 2.40319 9.49703 2.00507 8.77042 1.75576C8.83575 2.11159 8.85209 2.49893 8.81242 2.80051C8.77684 3.07351 8.6135 3.41126 8.46942 3.67726C8.37492 3.85226 8.267 4.01384 8.16842 4.15968L8.13342 4.21218C8.04934 4.33204 7.96919 4.4546 7.89309 4.57967C7.73559 4.84626 7.63584 5.09884 7.63584 5.40859C7.63584 5.51943 7.67667 5.60693 7.74725 5.68684C7.8575 5.81226 7.96367 5.96218 8.04475 6.12784C8.21334 6.47201 8.17309 6.83776 8.036 7.13001C7.89515 7.42494 7.65731 7.66258 7.36225 7.80317C6.0445 8.42501 4.7215 7.75359 4.03959 6.62017C3.76659 6.16692 3.32559 5.78834 2.86067 5.49726C2.53468 5.293 2.18776 5.12423 1.82584 4.99384C1.58175 5.62757 1.45696 6.30098 1.45775 6.98009C1.45763 7.93781 1.7066 8.8791 2.18023 9.71152C2.65385 10.5439 3.33583 11.2388 4.15921 11.728C4.98258 12.2172 5.91902 12.4838 6.87658 12.5017C7.83414 12.5195 8.77987 12.288 9.62092 11.8299C9.72592 12.1099 9.89392 12.359 10.1063 12.5614C9.15143 13.0974 8.07454 13.378 6.97959 13.3763C3.44692 13.3763 0.583336 10.5122 0.583336 6.98009C0.583336 5.59176 1.02492 4.30784 1.77567 3.25959C1.91275 3.53084 2.1315 3.75368 2.39984 3.89543C2.33235 3.99519 2.26815 4.09713 2.20734 4.20109C2.52525 4.32009 2.92484 4.50443 3.32559 4.75526C3.85525 5.08776 4.41992 5.55443 4.78975 6.16926C5.31009 7.03376 6.18975 7.38959 6.98892 7.01159C7.10047 6.95777 7.19067 6.86798 7.245 6.75668C7.29342 6.65459 7.28875 6.57234 7.259 6.51226C7.21363 6.42244 7.15677 6.3389 7.08984 6.26376C6.87869 6.02917 6.76172 5.7248 6.76142 5.40917C6.76142 4.88592 6.93875 4.47584 7.14059 4.13401C7.22809 3.98701 7.32375 3.84643 7.41009 3.71926L7.44509 3.66851C7.54309 3.52268 7.62884 3.39318 7.70059 3.26134C7.8505 2.98309 7.93392 2.77834 7.94559 2.68676C7.97125 2.48959 7.96192 2.19034 7.90825 1.90218C7.88557 1.77124 7.85001 1.64287 7.80209 1.51893C7.5298 1.47839 7.25546 1.45811 6.98017 1.45826ZM12.558 11.1358C12.5582 10.9921 12.53 10.8498 12.4751 10.717C12.4201 10.5842 12.3396 10.4636 12.238 10.362C12.1364 10.2604 12.0158 10.1799 11.883 10.125C11.7502 10.07 11.6079 10.0419 11.4643 10.042C11.2479 10.042 11.0365 10.1062 10.8566 10.2263C10.6767 10.3465 10.5365 10.5173 10.4538 10.7172C10.371 10.9171 10.3493 11.137 10.3915 11.3491C10.4337 11.5613 10.5379 11.7562 10.6909 11.9092C10.8438 12.0621 11.0387 12.1663 11.2509 12.2085C11.463 12.2507 11.683 12.229 11.8828 12.1463C12.0827 12.0635 12.2535 11.9233 12.3737 11.7434C12.4939 11.5635 12.558 11.3521 12.558 11.1358ZM3.28884 1.75459C3.47858 1.80182 3.6471 1.91112 3.76759 2.06512C3.88808 2.21911 3.95364 2.40897 3.95384 2.60451C3.95373 2.78659 3.89683 2.9641 3.79106 3.11231C3.68529 3.26051 3.53592 3.37203 3.36377 3.43133C3.19162 3.49062 3.00525 3.49473 2.83065 3.44308C2.65605 3.39144 2.50191 3.28661 2.38971 3.14321C2.27751 2.99981 2.21284 2.82498 2.20471 2.64308C2.19658 2.46119 2.2454 2.28128 2.34436 2.12845C2.44332 1.97561 2.5875 1.85745 2.75679 1.79044C2.92609 1.72342 3.11208 1.71089 3.28884 1.75459ZM9.4955 8.51076C9.4955 8.68481 9.42636 8.85173 9.30329 8.9748C9.18022 9.09787 9.0133 9.16701 8.83925 9.16701C8.66521 9.16701 8.49828 9.09787 8.37521 8.9748C8.25214 8.85173 8.183 8.68481 8.183 8.51076C8.183 8.33671 8.25214 8.16979 8.37521 8.04672C8.49828 7.92365 8.66521 7.85451 8.83925 7.85451C9.0133 7.85451 9.18022 7.92365 9.30329 8.04672C9.42636 8.16979 9.4955 8.33671 9.4955 8.51076Z" fill="#2B2B2B"></path></g><defs><clipPath id="clip0_9056_317856"><rect width="14" height="14" fill="current"></rect></clipPath></defs></svg>