<svg width="19" height="18" viewBox="0 0 19 18" fill="none" xmlns="http://www.w3.org/2000/svg">
<path fill-rule="evenodd" clip-rule="evenodd" d="M9.461 0.937501H9.539C10.2129 0.937479 10.7748 0.93746 11.2209 0.997435C11.6917 1.06074 12.1168 1.19999 12.4584 1.54159C12.8 1.8832 12.9393 2.3083 13.0026 2.77914C13.0469 3.10884 13.0584 3.50182 13.0615 3.95649C13.5478 3.97211 13.9814 4.00055 14.3668 4.05235C15.2461 4.17057 15.9578 4.41966 16.5191 4.98093C17.0803 5.54221 17.3294 6.25392 17.4476 7.13323C17.5625 7.98765 17.5625 9.07937 17.5625 10.4577V10.5423C17.5625 11.9206 17.5625 13.0124 17.4476 13.8668C17.3294 14.7461 17.0803 15.4578 16.5191 16.0191C15.9578 16.5803 15.2461 16.8294 14.3668 16.9477C13.5124 17.0625 12.4206 17.0625 11.0423 17.0625H7.95769C6.57937 17.0625 5.48764 17.0625 4.63323 16.9477C3.75392 16.8294 3.04221 16.5803 2.48093 16.0191C1.91966 15.4578 1.67057 14.7461 1.55235 13.8668C1.43748 13.0124 1.43749 11.9206 1.4375 10.5423V10.4577C1.43749 9.07937 1.43748 7.98764 1.55235 7.13323C1.67057 6.25392 1.91966 5.54221 2.48093 4.98093C3.04221 4.41966 3.75392 4.17057 4.63323 4.05235C5.01856 4.00055 5.45216 3.97211 5.93855 3.95649C5.94155 3.50182 5.95311 3.10884 5.99743 2.77914C6.06074 2.3083 6.19999 1.8832 6.54159 1.54159C6.88319 1.19999 7.3083 1.06074 7.77914 0.997435C8.22523 0.93746 8.78714 0.937479 9.461 0.937501ZM7.06385 3.93883C7.34745 3.9375 7.6452 3.9375 7.95769 3.9375H11.0423C11.3548 3.9375 11.6526 3.9375 11.9362 3.93883C11.933 3.51109 11.9225 3.18844 11.8876 2.92905C11.8411 2.58295 11.7607 2.43483 11.6629 2.33709C11.5652 2.23935 11.4171 2.15893 11.071 2.1124C10.7087 2.0637 10.223 2.0625 9.5 2.0625C8.77699 2.0625 8.29132 2.0637 7.92904 2.1124C7.58295 2.15893 7.43482 2.23935 7.33709 2.33709C7.23935 2.43483 7.15893 2.58295 7.1124 2.92905C7.07753 3.18844 7.06701 3.51109 7.06385 3.93883ZM4.78314 5.16732C4.02857 5.26877 3.59384 5.45902 3.27643 5.77643C2.95902 6.09384 2.76877 6.52857 2.66732 7.28314C2.5637 8.05389 2.5625 9.06989 2.5625 10.5C2.5625 11.9301 2.5637 12.9461 2.66732 13.7169C2.76877 14.4714 2.95902 14.9062 3.27643 15.2236C3.59383 15.541 4.02857 15.7312 4.78314 15.8327C5.55388 15.9363 6.56988 15.9375 8 15.9375H11C12.4301 15.9375 13.4461 15.9363 14.2169 15.8327C14.9714 15.7312 15.4062 15.541 15.7236 15.2236C16.041 14.9062 16.2312 14.4714 16.3327 13.7169C16.4363 12.9461 16.4375 11.9301 16.4375 10.5C16.4375 9.06989 16.4363 8.05389 16.3327 7.28314C16.2312 6.52857 16.041 6.09384 15.7236 5.77643C15.4062 5.45902 14.9714 5.26877 14.2169 5.16732C13.4461 5.0637 12.4301 5.0625 11 5.0625H8C6.56989 5.0625 5.55388 5.0637 4.78314 5.16732Z" fill="#4D4D4D"/>
<path d="M13.25 6.75C13.25 7.16422 12.9142 7.5 12.5 7.5C12.0858 7.5 11.75 7.16422 11.75 6.75C11.75 6.33579 12.0858 6 12.5 6C12.9142 6 13.25 6.33579 13.25 6.75Z" fill="#4D4D4D"/>
<path d="M7.25 6.75C7.25 7.16422 6.91421 7.5 6.5 7.5C6.08579 7.5 5.75 7.16422 5.75 6.75C5.75 6.33579 6.08579 6 6.5 6C6.91421 6 7.25 6.33579 7.25 6.75Z" fill="#4D4D4D"/>
</svg>
