<svg width="21" height="20" viewBox="0 0 21 20" fill="none" xmlns="http://www.w3.org/2000/svg" class="fill-bg-dark w-4 h-4  undefined">
<path fill-rule="evenodd" clip-rule="evenodd" d="M10.5002 0C8.12624 0.00123172 5.8301 0.842049 4.02238 2.3721C2.21466 3.90216 1.01324 6.02168 0.632944 8.35167C0.252645 10.6817 0.718262 13.0702 1.94655 15.0901C3.17484 17.1101 5.08569 18.6298 7.33743 19.3775C7.8342 19.4697 8.02132 19.1618 8.02132 18.9C8.02132 18.6382 8.01138 17.8792 8.00807 17.0493C5.22615 17.6503 4.63831 15.8754 4.63831 15.8754C4.18459 14.7229 3.52885 14.4199 3.52885 14.4199C2.62142 13.8041 3.59675 13.8157 3.59675 13.8157C4.60189 13.8865 5.13012 14.8414 5.13012 14.8414C6.021 16.3611 7.4699 15.9215 8.03953 15.6647C8.12895 15.0209 8.38893 14.5829 8.6754 14.3343C6.45318 14.084 4.11836 13.2312 4.11836 9.42118C4.10458 8.43309 4.47334 7.47754 5.14833 6.75223C5.04567 6.50197 4.70289 5.49103 5.24603 4.11786C5.24603 4.11786 6.08558 3.85113 7.99649 5.13703C9.63555 4.69135 11.3649 4.69135 13.0039 5.13703C14.9132 3.85113 15.7511 4.11786 15.7511 4.11786C16.2959 5.48773 15.9531 6.49868 15.8504 6.75223C16.5276 7.47766 16.8971 8.43488 16.8821 9.42448C16.8821 13.2427 14.5423 14.084 12.3167 14.3294C12.6744 14.6389 12.994 15.2432 12.994 16.1718C12.994 17.5021 12.9824 18.5723 12.9824 18.9C12.9824 19.1651 13.1629 19.4746 13.6696 19.3775C15.9216 18.6297 17.8327 17.1098 19.0609 15.0894C20.2892 13.0691 20.7546 10.6802 20.3738 8.35004C19.9931 6.01984 18.7911 3.9003 16.9828 2.3705C15.1744 0.840714 12.8778 0.000450995 10.5035 0H10.5002Z" fill="black">
</path>
</svg>