<svg width="21" height="20" viewBox="0 0 21 20" fill="none" xmlns="http://www.w3.org/2000/svg" class="fill-bg-dark w-4 h-4  undefined"><g clip-path="url(#clip0_8511_292593)"><path d="M20.305 10.2305C20.305 9.55068 20.2499 8.86724 20.1323 8.19849H10.7V12.0493H16.1014C15.8773 13.2913 15.1571 14.3899 14.1025 15.0881V17.5867H17.325C19.2174 15.845 20.305 13.2729 20.305 10.2305Z" fill="#4285F4"></path><path d="M10.7 20.0008C13.397 20.0008 15.6715 19.1152 17.3287 17.5867L14.1062 15.088C13.2096 15.698 12.0522 16.0434 10.7037 16.0434C8.09482 16.0434 5.8828 14.2833 5.08912 11.917H1.76375V14.4928C3.46134 17.8696 6.919 20.0008 10.7 20.0008V20.0008Z" fill="#34A853"></path><path d="M5.08545 11.917C4.66656 10.675 4.66656 9.3302 5.08545 8.08824V5.51245H1.76375C0.345413 8.3381 0.345413 11.6671 1.76375 14.4928L5.08545 11.917V11.917Z" fill="#FBBC04"></path><path d="M10.7 3.95805C12.1257 3.936 13.5036 4.47247 14.5361 5.45722L17.3912 2.60218C15.5833 0.904587 13.1839 -0.0287217 10.7 0.000673888C6.91899 0.000673888 3.46134 2.13185 1.76375 5.51234L5.08545 8.08813C5.87545 5.71811 8.09114 3.95805 10.7 3.95805V3.95805Z" fill="#EA4335"></path></g><defs><clipPath id="clip0_8511_292593"><rect width="20" height="20" fill="white" transform="translate(0.5)"></rect></clipPath></defs></svg>