<svg width="20" height="20" viewBox="0 0 20 20" fill="none" xmlns="http://www.w3.org/2000/svg">
<g clip-path="url(#clip0_50_923)">
<path fill-rule="evenodd" clip-rule="evenodd" d="M5.55554 12.5969C5.55554 11.4318 6.43653 10.4938 7.53085 10.4938C8.62517 10.4938 9.50616 11.4318 9.50616 12.5969V17.7735C9.50616 18.9386 8.62517 19.8765 7.53085 19.8765C6.43653 19.8765 5.55554 18.9386 5.55554 17.7735V12.5969Z" fill="#E01E5A"/>
<path fill-rule="evenodd" clip-rule="evenodd" d="M12.5968 14.4445C11.4317 14.4445 10.4938 13.5635 10.4938 12.4691C10.4938 11.3748 11.4317 10.4938 12.5968 10.4938H17.7735C18.9385 10.4938 19.8765 11.3748 19.8765 12.4691C19.8765 13.5635 18.9385 14.4445 17.7735 14.4445H12.5968Z" fill="#ECB22D"/>
<path fill-rule="evenodd" clip-rule="evenodd" d="M10.4938 2.22649C10.4938 1.06142 11.3748 0.123474 12.4691 0.123474C13.5634 0.123474 14.4444 1.06142 14.4444 2.22649V7.40315C14.4444 8.56824 13.5634 9.50619 12.4691 9.50619C11.3748 9.50619 10.4938 8.56824 10.4938 7.40315V2.22649Z" fill="#2FB67C"/>
<path fill-rule="evenodd" clip-rule="evenodd" d="M2.22642 9.50616C1.06136 9.50616 0.123413 8.62517 0.123413 7.53085C0.123413 6.43653 1.06136 5.55554 2.22642 5.55554H7.40309C8.56818 5.55554 9.50613 6.43653 9.50613 7.53085C9.50613 8.62517 8.56818 9.50616 7.40309 9.50616H2.22642Z" fill="#36C5F1"/>
<path fill-rule="evenodd" clip-rule="evenodd" d="M10.4938 17.9013C10.4932 18.1608 10.5439 18.4179 10.643 18.6578C10.7421 18.8978 10.8876 19.1157 11.0711 19.2993C11.2546 19.4828 11.4726 19.6283 11.7125 19.7274C11.9524 19.8264 12.2095 19.8771 12.4691 19.8766C13.5634 19.8766 14.4444 18.9956 14.4444 17.9013C14.4449 17.6417 14.3942 17.3846 14.2952 17.1447C14.1961 16.9048 14.0506 16.6868 13.8671 16.5033C13.6835 16.3198 13.4656 16.1743 13.2257 16.0752C12.9858 15.9761 12.7286 15.9254 12.4691 15.926H10.4938V17.9013Z" fill="#ECB22D"/>
<path fill-rule="evenodd" clip-rule="evenodd" d="M17.9012 9.50622H15.9259V7.53091C15.9259 6.43659 16.8069 5.5556 17.9012 5.5556C18.9955 5.5556 19.8765 6.43659 19.8765 7.53091C19.8765 8.62523 18.9955 9.50622 17.9012 9.50622Z" fill="#2FB67C"/>
<path fill-rule="evenodd" clip-rule="evenodd" d="M2.09873 10.4938H4.07403V12.4691C4.07403 13.5635 3.19305 14.4445 2.09873 14.4445C1.83917 14.445 1.58206 14.3943 1.34215 14.2952C1.10225 14.1961 0.884273 14.0507 0.700738 13.8671C0.517203 13.6836 0.371724 13.4656 0.272652 13.2257C0.173579 12.9858 0.122864 12.7287 0.123418 12.4691C0.123418 11.3748 1.0044 10.4938 2.09873 10.4938Z" fill="#E01E5A"/>
<path fill-rule="evenodd" clip-rule="evenodd" d="M9.50616 2.09879V4.0741H7.53085C7.2713 4.07465 7.01419 4.02393 6.77428 3.92486C6.53438 3.82579 6.3164 3.68031 6.13287 3.49677C5.94933 3.31324 5.80385 3.09526 5.70478 2.85536C5.60571 2.61545 5.55499 2.35834 5.55555 2.09879C5.55555 1.00447 6.43653 0.123479 7.53085 0.123479C7.79041 0.122925 8.04752 0.17364 8.28743 0.272713C8.52733 0.371786 8.74531 0.517264 8.92884 0.700799C9.11238 0.884334 9.25786 1.10231 9.35693 1.34221C9.456 1.58212 9.50672 1.83923 9.50616 2.09879Z" fill="#36C5F1"/>
</g>
<defs>
<clipPath id="clip0_50_923">
<rect width="20" height="20" fill="white"/>
</clipPath>
</defs>
</svg>
