<svg width="14" height="15" viewBox="0 0 14 15" fill="none" xmlns="http://www.w3.org/2000/svg" class="fill-bg-dark w-4 h-4  undefined"><path fill-rule="evenodd" clip-rule="evenodd" d="M4.74059 2.57699C4.53209 2.39166 4.21791 2.39166 4.00941 2.57699C3.49286 3.03614 2.72582 3.0561 2.1875 2.63685V12.3632C2.72582 11.944 3.49286 11.9639 4.00941 12.4231C4.21791 12.6084 4.53209 12.6084 4.74059 12.4231C5.28061 11.9431 6.09439 11.9431 6.63441 12.4231C6.84291 12.6084 7.15709 12.6084 7.36559 12.4231C7.90561 11.9431 8.71939 11.9431 9.25941 12.4231C9.46791 12.6084 9.78209 12.6084 9.99059 12.4231C10.5071 11.9639 11.2742 11.944 11.8125 12.3632V2.63685C11.2742 3.0561 10.5071 3.03614 9.99059 2.57699C9.78209 2.39166 9.46791 2.39166 9.25941 2.57699C8.71939 3.057 7.90561 3.057 7.36559 2.57699C7.15709 2.39166 6.84291 2.39166 6.63441 2.57699C6.09439 3.057 5.28061 3.057 4.74059 2.57699ZM3.42809 1.923C3.96811 1.44298 4.78189 1.44298 5.32191 1.923C5.53041 2.10833 5.84459 2.10833 6.05309 1.923C6.59311 1.44298 7.40689 1.44298 7.94691 1.923C8.15541 2.10833 8.46959 2.10833 8.67809 1.923C9.21811 1.44298 10.0319 1.44298 10.5719 1.923C10.7804 2.10833 11.0946 2.10833 11.3031 1.923C11.8395 1.44618 12.6875 1.82698 12.6875 2.54469V12.4554C12.6875 13.1731 11.8395 13.5539 11.3031 13.0771C11.0946 12.8918 10.7804 12.8918 10.5719 13.0771C10.0319 13.5571 9.21811 13.5571 8.67809 13.0771C8.46959 12.8918 8.15541 12.8918 7.94691 13.0771C7.40689 13.5571 6.59311 13.5571 6.05309 13.0771C5.84459 12.8918 5.53041 12.8918 5.32191 13.0771C4.78189 13.5571 3.96811 13.5571 3.42809 13.0771C3.21959 12.8918 2.90541 12.8918 2.69691 13.0771C2.16048 13.5539 1.3125 13.1731 1.3125 12.4554V2.54469C1.3125 1.82698 2.16048 1.44618 2.69691 1.923C2.90541 2.10833 3.21959 2.10833 3.42809 1.923ZM3.9375 5.45843C3.9375 5.21681 4.13338 5.02093 4.375 5.02093H9.625C9.86662 5.02093 10.0625 5.21681 10.0625 5.45843C10.0625 5.70006 9.86662 5.89593 9.625 5.89593H4.375C4.13338 5.89593 3.9375 5.70006 3.9375 5.45843ZM3.9375 7.5001C3.9375 7.25847 4.13338 7.0626 4.375 7.0626H9.625C9.86662 7.0626 10.0625 7.25847 10.0625 7.5001C10.0625 7.74172 9.86662 7.9376 9.625 7.9376H4.375C4.13338 7.9376 3.9375 7.74172 3.9375 7.5001ZM3.9375 9.54176C3.9375 9.30014 4.13338 9.10426 4.375 9.10426H9.625C9.86662 9.10426 10.0625 9.30014 10.0625 9.54176C10.0625 9.78339 9.86662 9.97926 9.625 9.97926H4.375C4.13338 9.97926 3.9375 9.78339 3.9375 9.54176Z" fill="current"></path></svg>